<svg width="50" height="50" viewBox="0 0 50 50" fill="none" xmlns="http://www.w3.org/2000/svg">
<rect width="50" height="50" fill="#1E1E1E"/>
<g id="Frame 1">
<rect width="11591" height="6753" transform="translate(-4030 -551)" fill="#E2E2E2"/>
<rect id="Rectangle 13" x="-80" y="-203" width="538" height="334" rx="24" fill="#024059"/>
<g id="Group">
<path id="Vector" d="M24.9837 50.0001H24.874C11.1587 50.0001 0 39.023 0 25.5308V25.4229C0 11.9307 11.1587 0.953613 24.874 0.953613H24.9837C38.6991 0.953613 49.8578 11.9307 49.8578 25.4229V25.5308C49.8578 39.023 38.6991 50.0001 24.9837 50.0001ZM24.874 2.61378C12.0885 2.61378 1.68763 12.8454 1.68763 25.4229V25.5308C1.68763 38.1082 12.0885 48.3399 24.874 48.3399H24.9837C37.7692 48.3399 48.1701 38.1082 48.1701 25.5308V25.4229C48.1701 12.8454 37.7692 2.61378 24.9837 2.61378H24.874Z" fill="#F2F23F"/>
<g id="Group_2">
<path id="Vector_2" d="M12.3315 17.5336C11.6969 16.9542 11.3813 16.237 11.3813 15.3837C11.3813 14.5304 11.6986 13.7816 12.3315 13.2006C12.966 12.6212 13.7828 12.3306 14.7836 12.3306C15.7844 12.3306 16.5691 12.6212 17.202 13.2006C17.8365 13.78 18.1521 14.5088 18.1521 15.3837C18.1521 16.2586 17.8349 16.9542 17.202 17.5336C16.5674 18.113 15.7624 18.4035 14.7836 18.4035C13.8048 18.4035 12.966 18.113 12.3315 17.5336ZM17.6188 20.8573V38.6211H11.9129V20.8573H17.6188Z" fill="#F2F23F"/>
<path id="Vector_3" d="M36.6132 22.6119C37.857 23.94 38.478 25.7629 38.478 28.0838V38.3071H33.0591V28.8043C33.0591 27.6339 32.7502 26.7241 32.1343 26.0767C31.5183 25.4292 30.688 25.1038 29.6484 25.1038C28.6088 25.1038 27.7784 25.4275 27.1625 26.0767C26.5465 26.7241 26.2376 27.6339 26.2376 28.8043V38.3071H20.7866V20.8073H26.2376V23.1282C26.7895 22.3546 27.5338 21.7436 28.4687 21.2937C29.4037 20.8438 30.4551 20.6197 31.6246 20.6197C33.7071 20.6197 35.3711 21.2837 36.6132 22.6119Z" fill="#F2F23F"/>
</g>
</g>
</g>
</svg>
