<svg width="163" height="93" viewBox="0 0 163 93" fill="none" xmlns="http://www.w3.org/2000/svg">
<g clip-path="url(#clip0_206_1335)">
<path d="M163 46.0549C163 54.7195 162.306 61.5914 160.925 66.6742C159.422 72.3365 156.71 77.189 152.787 81.2315C145.745 88.6253 136.399 92.3186 124.744 92.3186C113.204 92.3186 103.911 88.6253 96.8733 81.2315C92.9499 77.189 90.2348 72.3365 88.7351 66.6742C87.3506 61.5914 86.6602 54.7159 86.6602 46.0549H109.338C109.338 57.2609 111.049 64.5971 114.473 68.0637C117.098 70.7203 120.522 72.0486 124.744 72.0486C129.081 72.0486 132.562 70.7203 135.187 68.0637C138.611 64.5971 140.322 57.2609 140.322 46.0549H163Z" fill="white"/>
<path d="M109.334 0.208801H86.6567V50.8858H109.334V0.208801Z" fill="white"/>
<path d="M163 0.208801H140.323V50.8858H163V0.208801Z" fill="white"/>
<path d="M76.6772 20.2449V0.0144043L63.5224 0.0144043V20.2449H76.6772Z" fill="white"/>
<path d="M63.5262 0V20.2737C59.1892 20.2737 55.7081 21.602 53.0829 24.2586C49.6593 27.7251 47.9475 35.0613 47.9475 46.2673H25.27C25.27 37.6028 25.9641 30.7309 27.345 25.6481C28.8482 19.9857 31.5597 15.1333 35.4832 11.0908C42.5245 3.69332 51.871 0 63.5262 0Z" fill="white"/>
<path d="M25.2693 92.1098H47.9468L47.9468 41.4328H25.2693L25.2693 92.1098Z" fill="white"/>
<path d="M28.1255 0.0144043V20.2449H16.4954C7.62366 20.2449 0.420511 13.0346 0.420511 4.15409V0.0180041L28.1255 0.0180041V0.0144043Z" fill="#F2F23F"/>
</g>
<defs>
<clipPath id="clip0_206_1335">
<rect width="162.583" height="92.3186" fill="white" transform="translate(0.416504)"/>
</clipPath>
</defs>
</svg>
