<svg width="219" height="211" viewBox="0 0 219 211" fill="none" xmlns="http://www.w3.org/2000/svg">
<rect width="219" height="211" fill="#1E1E1E"/>
<g id="Frame 1">
<rect width="11591" height="6753" transform="translate(-7567 -1329)" fill="#E2E2E2"/>
<g id="Slide 16:9 - 29">
<g id="Capa 1">
<path id="Vector" d="M215.329 105.864C215.329 117.127 214.426 126.059 212.631 132.666C210.677 140.026 207.153 146.334 202.053 151.588C192.9 161.199 180.751 166 165.601 166C150.601 166 138.522 161.199 129.374 151.588C124.274 146.334 120.745 140.026 118.796 132.666C116.996 126.059 116.099 117.122 116.099 105.864H145.576C145.576 120.43 147.801 129.966 152.251 134.472C155.663 137.925 160.114 139.652 165.601 139.652C171.239 139.652 175.764 137.925 179.176 134.472C183.626 129.966 185.851 120.43 185.851 105.864H215.329Z" fill="#024059"/>
<path id="Vector_2" d="M145.572 46.2714H116.094V112.144H145.572V46.2714Z" fill="#024059"/>
<path id="Vector_3" d="M215.329 46.2714H185.852V112.144H215.329V46.2714Z" fill="#024059"/>
<path id="Vector_4" d="M103.123 72.3152V46.0187H86.0233V72.3152H103.123Z" fill="#024059"/>
<path id="Vector_5" d="M86.0279 46V72.3526C80.3905 72.3526 75.8656 74.0792 72.4532 77.5324C68.0031 82.0384 65.7781 91.5744 65.7781 106.14H36.3008C36.3008 94.8778 37.203 85.9454 38.998 79.3385C40.9519 71.9783 44.4765 65.6709 49.5763 60.4163C58.7289 50.8007 70.8779 46 86.0279 46Z" fill="#024059"/>
<path id="Vector_6" d="M36.3001 165.729H65.7773L65.7773 99.8563H36.3001L36.3001 165.729Z" fill="#024059"/>
<path id="Vector_7" d="M40.0122 46.0187V72.3152H24.8949C13.363 72.3152 4 62.943 4 51.3997V46.0234H40.0122V46.0187Z" fill="#0488A6"/>
</g>
</g>
</g>
</svg>
